<svg width="153" height="153" viewBox="0 0 153 153" fill="none" xmlns="http://www.w3.org/2000/svg">
<path d="M76.5003 0C34.2558 0 0 35.1167 0 78.4365C0 113.092 21.9196 142.494 52.3158 152.865C56.1388 153.591 57.5428 151.164 57.5428 149.092C57.5428 147.222 57.4714 141.042 57.439 134.488C36.1559 139.233 31.6651 125.234 31.6651 125.234C28.1852 116.168 23.1712 113.757 23.1712 113.757C16.2306 108.889 23.6944 108.989 23.6944 108.989C31.3765 109.542 35.4215 117.072 35.4215 117.072C42.2445 129.063 53.3177 125.596 57.6832 123.593C58.3695 118.522 60.3525 115.063 62.54 113.104C45.5486 111.12 27.686 104.395 27.686 74.3402C27.686 65.7771 30.6745 58.7796 35.5685 53.2868C34.7742 51.3109 32.1559 43.3334 36.3095 32.5293C36.3095 32.5293 42.7335 30.4211 57.3526 40.5695C63.4544 38.831 69.9989 37.9599 76.5003 37.9304C83.0017 37.9599 89.551 38.831 95.6648 40.5695C110.267 30.4211 116.681 32.5293 116.681 32.5293C120.845 43.3334 118.226 51.3109 117.431 53.2868C122.336 58.7796 125.304 65.7765 125.304 74.3402C125.304 104.466 107.408 111.1 90.3736 113.041C93.1173 115.476 95.5622 120.249 95.5622 127.567C95.5622 138.061 95.4734 146.508 95.4734 149.092C95.4734 151.179 96.8504 153.625 100.729 152.855C131.108 142.471 153 113.081 153 78.4365C153 35.1167 118.749 0 76.5003 0Z" fill="black"/>
</svg>
