<svg width="400" height="400" viewBox="0 0 400 400" fill="none" xmlns="http://www.w3.org/2000/svg">
<mask id="mask0_109_377" style="mask-type:alpha" maskUnits="userSpaceOnUse" x="0" y="0" width="400" height="400">
<path d="M0 16C0 7.16345 7.16344 0 16 0H384C392.837 0 400 7.16344 400 16V384C400 392.837 392.837 400 384 400H16C7.16345 400 0 392.837 0 384V16Z" fill="white"/>
</mask>
<g mask="url(#mask0_109_377)">
<path d="M200.001 6C89.5576 6 0 95.0445 0 204.89C0 292.766 57.3062 367.318 136.773 393.617C146.768 395.457 150.439 389.302 150.439 384.049C150.439 379.307 150.252 363.638 150.167 347.019C94.5253 359.05 82.7845 323.553 82.7845 323.553C73.6868 300.563 60.5783 294.452 60.5783 294.452C42.433 282.107 61.946 282.36 61.946 282.36C82.03 283.764 92.6054 302.856 92.6054 302.856C110.443 333.263 139.393 324.471 150.806 319.391C152.6 306.535 157.784 297.762 163.503 292.795C119.081 287.765 72.3818 270.711 72.3818 194.503C72.3818 172.789 80.1948 155.046 92.9897 141.118C90.9129 136.108 84.0676 115.879 94.9268 88.4837C94.9268 88.4837 111.722 83.1381 149.941 108.871C165.894 104.463 183.004 102.254 200.001 102.179C216.998 102.254 234.12 104.463 250.104 108.871C288.278 83.1381 305.05 88.4837 305.05 88.4837C315.936 115.879 309.087 136.108 307.01 141.118C319.833 155.046 327.593 172.788 327.593 194.503C327.593 270.892 280.806 287.713 236.271 292.636C243.444 298.809 249.836 310.913 249.836 329.468C249.836 356.079 249.604 377.497 249.604 384.049C249.604 389.341 253.204 395.543 263.343 393.59C342.766 367.261 400 292.736 400 204.89C400 95.0445 310.455 6 200.001 6Z" fill="#666666"/>
</g>
</svg>
