<svg width="450" height="268" viewBox="0 0 450 268" fill="none" xmlns="http://www.w3.org/2000/svg">
<mask id="mask0_109_392" style="mask-type:alpha" maskUnits="userSpaceOnUse" x="0" y="0" width="450" height="268">
<path d="M0 16C0 7.16345 7.16344 0 16 0H434C442.837 0 450 7.16344 450 16V252C450 260.837 442.837 268 434 268H16C7.16344 268 0 260.837 0 252V16Z" fill="white"/>
</mask>
<g mask="url(#mask0_109_392)">
<path fill-rule="evenodd" clip-rule="evenodd" d="M224.653 264.257C223.248 264.257 221.937 263.882 220.719 263.226L208.263 255.827C206.389 254.797 207.326 254.422 207.888 254.235C210.417 253.392 210.885 253.205 213.508 251.706C213.789 251.519 214.163 251.613 214.444 251.8L223.997 257.513C224.372 257.7 224.84 257.7 225.121 257.513L262.492 235.878C262.866 235.69 263.054 235.316 263.054 234.847V191.67C263.054 191.202 262.866 190.827 262.492 190.64L225.121 169.098C224.747 168.911 224.278 168.911 223.997 169.098L186.627 190.64C186.252 190.827 186.065 191.295 186.065 191.67V234.847C186.065 235.222 186.252 235.69 186.627 235.878L196.836 241.778C202.362 244.588 205.827 241.31 205.827 238.032V195.416C205.827 194.854 206.296 194.293 206.951 194.293H211.728C212.29 194.293 212.852 194.761 212.852 195.416V238.032C212.852 245.431 208.825 249.739 201.8 249.739C199.646 249.739 197.96 249.739 193.183 247.398L183.349 241.778C180.914 240.373 179.415 237.751 179.415 234.941V191.764C179.415 188.954 180.914 186.331 183.349 184.927L220.719 163.291C223.061 161.98 226.245 161.98 228.587 163.291L265.957 184.927C268.392 186.331 269.891 188.954 269.891 191.764V234.941C269.891 237.751 268.392 240.373 265.957 241.778L228.587 263.414C227.369 263.976 225.964 264.257 224.653 264.257ZM236.173 234.566C219.783 234.566 216.411 227.074 216.411 220.705C216.411 220.143 216.879 219.581 217.535 219.581H222.405C222.967 219.581 223.436 219.955 223.436 220.517C224.185 225.481 226.339 227.917 236.267 227.917C244.134 227.917 247.506 226.137 247.506 221.922C247.506 219.487 246.57 217.708 234.3 216.49C224.091 215.46 217.722 213.212 217.722 205.063C217.722 197.477 224.091 192.981 234.768 192.981C246.757 192.981 252.657 197.102 253.407 206.094C253.407 206.375 253.313 206.656 253.126 206.937C252.938 207.124 252.657 207.311 252.376 207.311H247.506C247.038 207.311 246.57 206.937 246.476 206.468C245.352 201.317 242.449 199.631 234.768 199.631C226.152 199.631 225.121 202.628 225.121 204.876C225.121 207.592 226.339 208.435 237.953 209.934C249.473 211.432 254.905 213.587 254.905 221.641C254.812 229.883 248.068 234.566 236.173 234.566Z" fill="#999999"/>
<path fill-rule="evenodd" clip-rule="evenodd" d="M301.39 2.30515C302.102 1.89828 303.119 1.89828 303.933 2.30515L329.667 16.6474C331.295 17.5628 332.312 19.292 332.312 21.2247V145.219C332.312 147.05 331.295 148.779 329.667 149.694L286.539 174.615C284.911 175.531 282.979 175.531 281.351 174.615L238.223 149.694C236.595 148.779 235.578 147.05 235.578 145.219V95.4788C235.578 93.6478 236.595 91.9186 238.223 91.0032L281.351 66.0823C282.979 65.1668 284.911 65.1668 286.539 66.0823L297.321 72.2871C297.931 72.5922 298.542 72.5922 299.152 72.2871C299.762 71.8802 300.067 71.2699 300.067 70.6596V4.54295C300.067 3.62749 300.576 2.81374 301.39 2.30515ZM284.606 138.505L299.355 129.961C299.762 129.758 299.965 129.351 299.965 128.842V111.754C299.965 111.347 299.762 110.838 299.355 110.635L284.606 102.09C284.199 101.887 283.69 101.887 283.283 102.09L268.534 110.635C268.128 110.838 267.924 111.245 267.924 111.754V128.842C267.924 129.249 268.128 129.758 268.534 129.961L283.283 138.505C283.69 138.709 284.199 138.709 284.606 138.505Z" fill="#444444"/>
<path d="M96.632 94.1564C96.632 92.3255 95.6148 90.5963 93.9874 89.6809L50.859 64.8617C50.1469 64.4548 49.3332 64.2514 48.5194 64.1497H48.1126C47.2988 64.1497 46.4851 64.4548 45.7731 64.8617L2.64467 89.6809C1.01718 90.5963 0 92.3255 0 94.1564L0.101718 160.883C0.101718 161.799 0.610307 162.714 1.42405 163.121C2.23779 163.63 3.25497 163.63 3.967 163.121L29.5999 148.474C31.2274 147.558 32.2446 145.829 32.2446 143.998V112.771C32.2446 110.94 33.2618 109.211 34.8892 108.295L45.7731 101.989C46.5868 101.48 47.5023 101.277 48.4177 101.277C49.3332 101.277 50.2487 101.48 50.9607 101.989L61.8445 108.295C63.472 109.211 64.4892 110.94 64.4892 112.771V143.998C64.4892 145.829 65.5063 147.558 67.1338 148.474L92.7667 163.121C93.5805 163.63 94.5977 163.63 95.4114 163.121C96.2252 162.714 96.7337 161.799 96.7337 160.883L96.632 94.1564Z" fill="#444444"/>
<path d="M421.824 126.299L447.457 111.347C449.085 110.431 450 108.702 450 106.871V94.7668C450 92.9358 448.983 91.2066 447.457 90.2912L404.634 65.472C403.006 64.5565 401.074 64.5565 399.446 65.472L356.318 90.3929C354.69 91.3083 353.673 93.0375 353.673 94.8685V144.609C353.673 146.439 354.69 148.169 356.318 149.084L399.141 173.496C400.769 174.412 402.701 174.412 404.227 173.496L430.165 159.052C430.979 158.646 431.487 157.73 431.487 156.815C431.487 155.899 430.979 154.984 430.165 154.577L386.833 129.656C386.019 129.147 385.511 128.334 385.511 127.418V111.855C385.511 110.94 386.019 110.024 386.833 109.618L400.362 101.887C401.175 101.378 402.193 101.378 403.006 101.887L416.535 109.618C417.349 110.126 417.857 110.94 417.857 111.855V124.062C417.857 124.977 418.366 125.892 419.179 126.299C419.993 126.808 421.01 126.808 421.824 126.299Z" fill="#444444"/>
<path d="M402.396 109.007C402.091 108.804 401.684 108.804 401.379 109.007L393.14 113.788C392.834 113.991 392.631 114.297 392.631 114.703V124.265C392.631 124.672 392.834 124.977 393.14 125.18L401.379 129.961C401.684 130.165 402.091 130.165 402.396 129.961L410.635 125.18C410.94 124.977 411.144 124.672 411.144 124.265V114.703C411.144 114.297 410.94 113.991 410.635 113.788L402.396 109.007Z" fill="#444444"/>
<path d="M167.297 65.1154C167.797 65.2276 168.286 65.4142 168.75 65.6754L190.01 77.9465L211.676 90.3929C212.123 90.6447 212.533 90.9581 212.891 91.3183L212.896 91.3083C213.322 91.734 213.682 92.2477 213.945 92.8084C214.251 93.4511 214.422 94.152 214.422 94.8684V144.405L214.422 144.435C214.419 144.819 214.373 145.198 214.285 145.566L214.32 145.626C214.304 145.677 214.287 145.729 214.27 145.78L215.337 147.558V148.169L167.733 175.734L166.989 174.34C165.827 174.551 164.619 174.316 163.563 173.7L120.536 148.982C120.028 148.677 119.519 148.27 119.112 147.762L119.14 147.714C118.882 147.422 118.652 147.104 118.458 146.767C118.035 146.052 117.79 145.253 117.79 144.405V94.8684C117.79 93.2664 118.646 91.7422 119.951 90.7729C120.137 90.6344 120.333 90.5073 120.536 90.3929L163.461 65.6754C164.28 65.1538 165.209 64.9597 166.127 64.9732C166.539 64.9673 166.942 65.0011 167.326 65.0651L167.297 65.1154Z" fill="#444444"/>
<path d="M161.529 56.9277L162.139 56.6225L162.342 56.9277H161.529Z" fill="#444444"/>
<path d="M215.438 147.558L215.744 148.067L215.438 148.27V147.558Z" fill="#444444"/>
</g>
</svg>
