<svg width="400" height="400" viewBox="0 0 400 400" fill="none" xmlns="http://www.w3.org/2000/svg">
<mask id="mask0_109_320" style="mask-type:alpha" maskUnits="userSpaceOnUse" x="0" y="0" width="400" height="400">
<path d="M0 16C0 7.16345 7.16344 0 16 0H384C392.837 0 400 7.16344 400 16V384C400 392.837 392.837 400 384 400H16C7.16345 400 0 392.837 0 384V16Z" fill="white"/>
</mask>
<g mask="url(#mask0_109_320)">
<path d="M133.667 400C170.467 400 200.333 370.133 200.333 333.333V266.667H133.667C96.8667 266.667 67 296.533 67 333.333C67 370.133 96.8667 400 133.667 400Z" fill="#999999"/>
<path d="M67 200C67 163.2 96.8667 133.333 133.667 133.333H200.333V266.666H133.667C96.8667 266.666 67 236.799 67 200Z" fill="#555555"/>
<path d="M67 66.6666C67 29.8666 96.8667 0 133.667 0H200.333V133.333H133.667C96.8667 133.333 67 103.467 67 66.6666Z" fill="#333333"/>
<path d="M200.333 0H267C303.8 0 333.667 29.8666 333.667 66.6666C333.667 103.467 303.8 133.333 267 133.333H200.333V0Z" fill="#494949"/>
<path d="M333.667 200C333.667 236.799 303.8 266.666 267 266.666C230.2 266.666 200.333 236.799 200.333 200C200.333 163.2 230.2 133.333 267 133.333C303.8 133.333 333.667 163.2 333.667 200Z" fill="#777777"/>
</g>
</svg>
