<svg width="450" height="268" viewBox="0 0 450 268" fill="none" xmlns="http://www.w3.org/2000/svg">
<mask id="mask0_584_184" style="mask-type:alpha" maskUnits="userSpaceOnUse" x="0" y="0" width="450" height="268">
<path d="M0 16C0 7.16345 7.16344 0 16 0H434C442.837 0 450 7.16345 450 16V252C450 260.837 442.837 268 434 268H16C7.16344 268 0 260.837 0 252V16Z" fill="white"/>
</mask>
<g mask="url(#mask0_584_184)">
<path fill-rule="evenodd" clip-rule="evenodd" d="M397.711 130.615C396.612 130.615 395.585 130.323 394.632 129.811L384.88 124.038C383.414 123.234 384.147 122.942 384.587 122.796C386.567 122.138 386.933 121.992 388.986 120.823C389.206 120.676 389.499 120.75 389.719 120.896L397.198 125.353C397.491 125.5 397.858 125.5 398.078 125.353L427.333 108.472C427.626 108.326 427.773 108.034 427.773 107.669V73.9797C427.773 73.6143 427.626 73.322 427.333 73.1759L398.078 56.368C397.785 56.2218 397.418 56.2218 397.198 56.368L367.943 73.1759C367.65 73.322 367.503 73.6874 367.503 73.9797V107.669C367.503 107.961 367.65 108.326 367.943 108.472L375.935 113.076C380.261 115.269 382.974 112.711 382.974 110.153V76.9028C382.974 76.4644 383.34 76.0259 383.854 76.0259H387.593C388.033 76.0259 388.473 76.3913 388.473 76.9028V110.153C388.473 115.926 385.32 119.288 379.821 119.288C378.135 119.288 376.815 119.288 373.076 117.461L365.377 113.076C363.47 111.98 362.297 109.934 362.297 107.742V74.0528C362.297 71.8605 363.47 69.8143 365.377 68.7181L394.632 51.8371C396.465 50.8141 398.958 50.8141 400.791 51.8371L430.046 68.7181C431.952 69.8143 433.125 71.8605 433.125 74.0528V107.742C433.125 109.934 431.952 111.98 430.046 113.076L400.791 129.957C399.838 130.396 398.738 130.615 397.711 130.615ZM406.73 107.449C393.899 107.449 391.259 101.603 391.259 96.6338C391.259 96.1954 391.626 95.7569 392.139 95.7569H395.952C396.392 95.7569 396.758 96.0492 396.758 96.4877C397.345 100.361 399.031 102.261 406.803 102.261C412.962 102.261 415.602 100.872 415.602 97.5838C415.602 95.6838 414.868 94.2953 405.263 93.3453C397.271 92.5415 392.286 90.7876 392.286 84.4298C392.286 78.5105 397.271 75.0028 405.63 75.0028C415.015 75.0028 419.634 78.2182 420.221 85.2337C420.221 85.4529 420.147 85.6722 420.001 85.8914C419.854 86.0376 419.634 86.1837 419.414 86.1837H415.602C415.235 86.1837 414.868 85.8914 414.795 85.526C413.915 81.5067 411.642 80.1913 405.63 80.1913C398.884 80.1913 398.078 82.5298 398.078 84.2837C398.078 86.4029 399.031 87.0606 408.123 88.2299C417.141 89.3991 421.394 91.0799 421.394 97.3646C421.321 103.795 416.042 107.449 406.73 107.449Z" fill="#999999"/>
<path fill-rule="evenodd" clip-rule="evenodd" d="M238.736 3.34893C239.26 3.05036 240.009 3.05036 240.608 3.34893L259.552 13.8736C260.75 14.5454 261.498 15.8143 261.498 17.2325V108.222C261.498 109.566 260.75 110.835 259.552 111.507L227.804 129.794C226.606 130.466 225.183 130.466 223.985 129.794L192.237 111.507C191.039 110.835 190.29 109.566 190.29 108.222V71.7219C190.29 70.3784 191.039 69.1094 192.237 68.4376L223.985 50.1501C225.183 49.4783 226.606 49.4783 227.804 50.1501L235.741 54.7033C236.19 54.9272 236.639 54.9272 237.088 54.7033C237.538 54.4047 237.762 53.9569 237.762 53.509V4.99108C237.762 4.31929 238.137 3.72214 238.736 3.34893ZM226.381 103.296L237.238 97.0259C237.537 96.8766 237.687 96.578 237.687 96.2048V83.6648C237.687 83.3662 237.537 82.993 237.238 82.8437L226.381 76.5737C226.081 76.4244 225.707 76.4244 225.407 76.5737L214.55 82.8437C214.251 82.993 214.101 83.2916 214.101 83.6648V96.2048C214.101 96.5034 214.251 96.8766 214.55 97.0259L225.407 103.296C225.707 103.445 226.081 103.445 226.381 103.296Z" fill="#444444"/>
<path d="M88.0083 70.7516C88.0083 69.408 87.2596 68.1391 86.0615 67.4673L54.3136 49.2544C53.7895 48.9558 53.1904 48.8065 52.5914 48.7319H52.2919C51.6929 48.7319 51.0939 48.9558 50.5697 49.2544L18.8218 67.4673C17.6238 68.1391 16.875 69.408 16.875 70.7516L16.9499 119.717C16.9499 120.389 17.3243 121.061 17.9233 121.36C18.5223 121.733 19.2711 121.733 19.7952 121.36L38.6643 110.611C39.8623 109.939 40.6111 108.67 40.6111 107.327V84.4113C40.6111 83.0677 41.3598 81.7987 42.5579 81.127L50.5697 76.4991C51.1688 76.1259 51.8427 75.9766 52.5165 75.9766C53.1904 75.9766 53.8643 76.1259 54.3885 76.4991L62.4003 81.127C63.5984 81.7987 64.3471 83.0677 64.3471 84.4113V107.327C64.3471 108.67 65.0959 109.939 66.294 110.611L85.163 121.36C85.762 121.733 86.5108 121.733 87.1098 121.36C87.7088 121.061 88.0832 120.389 88.0832 119.717L88.0083 70.7516Z" fill="#444444"/>
<path d="M327.391 94.3388L346.26 83.3662C347.458 82.6945 348.132 81.4255 348.132 80.082V71.1994C348.132 69.8559 347.383 68.5869 346.26 67.9151L314.736 49.7022C313.538 49.0305 312.116 49.0305 310.918 49.7022L279.17 67.9898C277.972 68.6616 277.223 69.9305 277.223 71.2741V107.775C277.223 109.118 277.972 110.387 279.17 111.059L310.693 128.973C311.891 129.645 313.314 129.645 314.437 128.973L333.531 118.374C334.13 118.075 334.504 117.403 334.504 116.732C334.504 116.06 334.13 115.388 333.531 115.09L301.633 96.802C301.034 96.4288 300.66 95.8316 300.66 95.1598V83.7395C300.66 83.0677 301.034 82.3959 301.633 82.0973L311.592 76.4244C312.191 76.0512 312.939 76.0512 313.538 76.4244L323.497 82.0973C324.096 82.4705 324.47 83.0677 324.47 83.7395V92.6966C324.47 93.3684 324.845 94.0402 325.444 94.3388C326.043 94.712 326.792 94.712 327.391 94.3388Z" fill="#444444"/>
<path d="M313.089 81.6494C312.864 81.5001 312.565 81.5001 312.34 81.6494L306.275 85.1577C306.051 85.3069 305.901 85.5309 305.901 85.8294V92.8459C305.901 93.1445 306.051 93.3684 306.275 93.5177L312.34 97.0259C312.565 97.1752 312.864 97.1752 313.089 97.0259L319.154 93.5177C319.379 93.3684 319.529 93.1445 319.529 92.8459V85.8294C319.529 85.5309 319.379 85.3069 319.154 85.1577L313.089 81.6494Z" fill="#444444"/>
<path d="M140.027 49.4406C140.394 49.5229 140.754 49.6599 141.096 49.8515L156.746 58.8563L172.695 67.9898C173.025 68.1746 173.326 68.4046 173.589 68.6689L173.593 68.6616C173.907 68.974 174.172 69.3509 174.365 69.7624C174.59 70.234 174.717 70.7483 174.717 71.274V107.625L174.716 107.647C174.715 107.929 174.68 108.207 174.615 108.477L174.641 108.521C174.63 108.559 174.617 108.596 174.605 108.634L175.39 109.939V110.387L140.348 130.615L139.8 129.592C138.944 129.747 138.055 129.574 137.278 129.122L105.605 110.984C105.231 110.76 104.856 110.462 104.557 110.088L104.577 110.053C104.387 109.839 104.218 109.606 104.075 109.359C103.764 108.834 103.583 108.247 103.583 107.625V71.2741C103.583 70.0984 104.214 68.9799 105.174 68.2687C105.311 68.167 105.455 68.0737 105.605 67.9898L137.203 49.8515C137.806 49.4688 138.49 49.3263 139.166 49.3362C139.468 49.3319 139.766 49.3567 140.048 49.4037L140.027 49.4406Z" fill="#444444"/>
<path d="M135.78 43.4322L136.23 43.2083L136.379 43.4322H135.78Z" fill="#444444"/>
<path d="M175.465 109.939L175.689 110.312L175.465 110.462V109.939Z" fill="#444444"/>
<path d="M145.089 225.628C145.089 237.951 145.089 250.274 145.089 263.097C143.341 263.18 141.759 263.263 139.844 263.43C139.844 230.791 139.844 198.568 139.844 165.845C141.342 165.762 142.925 165.595 145.006 165.512C145.006 170.508 145.006 175.087 145.006 179.667C145.339 179.917 145.755 180.083 146.089 180.333C146.505 179.584 146.921 178.834 147.337 178.085C156.829 158.851 188.47 158.851 199.211 179.334C206.871 193.905 206.704 209.142 199.627 223.88C195.63 232.123 188.553 237.119 179.477 238.284C174.315 238.95 168.819 238.95 163.74 238.118C155.997 236.952 149.919 232.622 146.505 225.129C145.922 225.295 145.506 225.462 145.089 225.628ZM144.507 201.315C144.756 201.399 145.006 201.482 145.256 201.565C145.672 205.312 145.755 209.059 146.422 212.723C148.67 225.046 156.58 232.622 168.403 234.038C180.643 235.453 191.384 229.375 195.88 217.968C200.709 205.645 200.376 193.322 193.882 181.582C188.803 172.34 180.56 168.676 170.152 169.176C160.327 169.592 153.166 174.172 149.336 182.998C146.838 188.743 146.005 195.154 144.507 201.315Z" fill="#999999"/>
<path d="M6.20548 202.482C6.12221 219.717 14.6983 231.624 28.4368 233.789C42.5083 235.954 51.0844 230.375 58.9112 213.306C60.3267 213.306 61.8254 213.306 63.2409 213.306C63.4907 213.889 63.8238 214.305 63.7405 214.638C58.5782 234.288 42.0087 243.697 22.6084 237.952C14.6151 235.537 8.37032 230.708 4.87326 223.131C-1.87107 208.393 -1.78781 193.406 6.20548 179.251C14.1155 165.263 26.4385 162.599 39.5941 164.514C51.584 166.262 61.2426 176.504 63.7405 189.576C64.4899 193.573 64.5731 197.736 65.0727 202.565C45.0062 202.482 25.6891 202.482 6.20548 202.482ZM7.03811 197.236C24.1071 197.236 41.2594 197.236 58.3284 197.236C58.9112 181.666 48.42 170.009 34.5983 169.093C19.9439 168.177 6.45527 180.75 7.03811 197.236Z" fill="#999999"/>
<path d="M256.495 202.564C256.412 219.883 264.405 231.373 278.144 233.455C291.133 235.453 303.04 231.623 308.701 213.388C310.2 213.305 311.865 213.222 313.447 213.139C313.697 213.888 313.947 214.304 313.864 214.637C309.701 231.79 298.46 239.949 280.558 239.033C264.322 238.201 253.082 227.21 251 209.808C249.834 199.567 250.584 189.575 255.663 180.25C262.074 168.426 273.564 162.681 287.802 164.18C299.459 165.345 309.784 174.171 313.031 186.411C314.363 191.407 314.53 196.736 315.363 202.647C304.705 202.647 295.046 202.647 285.388 202.647C275.979 202.564 266.57 202.564 256.495 202.564ZM256.745 197.235C274.147 197.235 291.466 197.235 308.785 197.235C308.785 181.915 299.043 170.258 286.22 169.175C268.985 167.76 257.494 180.749 256.745 197.235Z" fill="#999999"/>
<path d="M447.668 187.079C445.503 186.913 444.088 186.829 442.672 186.746C440.341 174.007 434.512 169.094 421.773 169.261C417.443 169.344 412.947 169.844 408.867 171.259C403.871 173.008 400.374 176.838 400.291 182.666C400.208 188.661 403.788 192.241 408.867 193.99C414.196 195.905 419.941 196.904 425.437 198.403C430.099 199.652 434.929 200.651 439.342 202.4C445.836 204.981 449.333 209.977 449.916 217.054C450.499 224.631 448.084 230.792 441.34 234.289C429.017 240.701 416.278 241.034 403.955 234.622C396.128 230.543 392.548 223.382 392.298 214.056C394.13 214.056 395.712 214.056 397.294 214.056C401.873 231.958 420.857 239.785 437.01 230.626C441.756 227.961 444.587 224.048 444.421 218.303C444.254 212.724 441.173 209.061 436.344 207.312C430.766 205.314 424.937 204.148 419.275 202.4C413.863 200.734 408.201 199.402 403.039 197.071C391.715 191.992 391.382 173.174 403.622 167.512C414.612 162.433 425.936 162.017 436.844 167.179C444.504 170.926 447.918 177.754 447.668 187.079Z" fill="#999999"/>
<path d="M324.688 214.222C326.353 214.139 327.935 214.056 329.85 213.889C331.016 222.465 335.095 228.627 342.922 231.791C351.831 235.371 360.657 234.788 369.233 230.708C374.229 228.377 376.894 224.214 376.81 218.552C376.727 213.056 373.813 209.226 368.9 207.394C363.155 205.313 357.077 204.147 351.165 202.399C346.086 200.9 340.924 199.651 336.178 197.569C329.683 194.738 326.936 189.16 327.019 182.082C327.102 175.172 330.433 170.092 336.511 167.428C347.085 162.682 358.076 162.266 368.651 167.012C376.561 170.592 380.224 177.42 380.058 186.745C378.309 186.828 376.644 186.912 375.145 186.995C372.647 174.089 367.069 169.177 354.329 169.343C349.583 169.426 344.671 170.342 340.258 171.924C335.345 173.673 332.598 177.753 332.681 183.248C332.847 188.494 335.845 192.074 340.508 193.656C346.336 195.654 352.414 196.82 358.326 198.569C363.405 199.984 368.567 201.316 373.397 203.398C384.221 207.894 386.136 226.295 375.062 233.789C364.904 240.7 344.671 240.866 334.679 233.872C328.351 229.459 325.687 224.214 324.688 214.222Z" fill="#999999"/>
<path d="M102.957 199.734C112.449 212.307 121.525 224.38 131.184 237.202C128.602 237.369 126.604 237.536 124.106 237.702C116.03 226.795 107.953 215.804 99.2937 204.064C90.8008 215.304 82.641 226.045 74.2314 237.202C72.3996 237.202 70.3181 237.202 67.2373 237.202C76.7293 224.546 85.805 212.473 95.2971 199.734C86.7209 188.493 78.0615 177.253 69.0691 165.513C72.0666 165.513 74.3147 165.513 76.6461 165.513C84.0565 175.255 91.467 185.08 99.2104 195.321C106.954 185.163 114.281 175.504 121.775 165.679C123.856 165.679 125.938 165.679 128.852 165.679C120.11 177.17 111.7 188.16 102.957 199.734Z" fill="#999999"/>
<path d="M224.439 177.338C231.433 168.762 238.593 165.431 250.084 165.598C250.25 166.93 250.417 168.345 250.583 169.844C249.751 170.177 249.168 170.677 248.585 170.677C235.679 169.927 222.357 180.918 222.274 197.155C222.19 208.645 222.19 220.135 222.19 231.626C222.19 233.374 222.19 235.123 222.19 237.204C220.192 237.204 218.61 237.204 216.778 237.204C216.778 213.391 216.778 189.911 216.778 165.848C218.444 165.764 220.026 165.681 222.19 165.598C222.19 169.761 222.19 173.508 222.19 177.255C222.19 178.337 222.19 179.419 222.19 180.502C222.523 180.585 222.773 180.585 223.106 180.668C223.523 179.503 223.939 178.42 224.439 177.338Z" fill="#999999"/>
</g>
</svg>
