<svg width="400" height="400" viewBox="0 0 400 400" fill="none" xmlns="http://www.w3.org/2000/svg">
<mask id="mask0_109_294" style="mask-type:alpha" maskUnits="userSpaceOnUse" x="0" y="0" width="400" height="400">
<path d="M0 16C0 7.16345 7.16344 0 16 0H384C392.837 0 400 7.16344 400 16V384C400 392.837 392.837 400 384 400H16C7.16345 400 0 392.837 0 384V16Z" fill="white"/>
</mask>
<g mask="url(#mask0_109_294)">
<path d="M376.7 0L344.568 359.958L200.134 400L56.0978 360.015L24 0H376.7Z" fill="#888888"/>
<path d="M317.059 337.037L344.518 29.4365H200.35V369.394L317.059 337.037Z" fill="#999999"/>
<path d="M97.5834 162.961L101.541 207.115H200.35V162.961H97.5834Z" fill="#EBEBEB"/>
<path d="M200.35 73.5901H200.197H89.6318L93.6456 117.745H200.35V73.5901Z" fill="#EBEBEB"/>
<path d="M200.35 323.573V277.634L200.156 277.685L150.981 264.407L147.838 229.192H123.942H103.514L109.7 298.521L200.146 323.629L200.35 323.573Z" fill="#EBEBEB"/>
<path d="M254.569 207.113L249.443 264.378L200.197 277.67V323.607L290.716 298.52L291.38 291.06L301.756 174.816L302.833 162.96L310.805 73.5901H200.197V117.745H262.415L258.398 162.96H200.197V207.113H254.569Z" fill="white"/>
</g>
</svg>
