<svg width="400" height="400" viewBox="0 0 400 400" fill="none" xmlns="http://www.w3.org/2000/svg">
<mask id="mask0_109_308" style="mask-type:alpha" maskUnits="userSpaceOnUse" x="0" y="0" width="400" height="400">
<path d="M0 0H400V400H0V0Z" fill="white"/>
</mask>
<g mask="url(#mask0_109_308)">
<path d="M400 0H0V400H400V0Z" fill="#888888"/>
<path d="M268.698 312.502C276.755 325.657 287.238 335.327 305.778 335.327C321.352 335.327 331.301 327.543 331.301 316.787C331.301 303.899 321.079 299.333 303.936 291.835L294.54 287.803C267.416 276.248 249.397 261.772 249.397 231.168C249.397 202.978 270.876 181.518 304.444 181.518C328.343 181.518 345.524 189.835 357.905 211.613L328.635 230.406C322.19 218.851 315.238 214.299 304.444 214.299C293.435 214.299 286.457 221.283 286.457 230.406C286.457 241.683 293.441 246.248 309.568 253.232L318.965 257.257C350.901 270.953 368.933 284.914 368.933 316.305C368.933 350.146 342.349 368.686 306.647 368.686C271.74 368.686 249.187 352.051 238.152 330.248L268.698 312.502ZM135.917 315.759C141.822 326.235 147.194 335.092 160.108 335.092C172.457 335.092 180.248 330.26 180.248 311.473V183.664H217.835V311.981C217.835 350.902 195.016 368.616 161.708 368.616C131.613 368.616 114.184 353.041 105.321 334.283L135.917 315.759Z" fill="white"/>
</g>
</svg>
