<svg width="400" height="400" viewBox="0 0 400 400" fill="none" xmlns="http://www.w3.org/2000/svg">
<mask id="mask0_109_386" style="mask-type:alpha" maskUnits="userSpaceOnUse" x="0" y="0" width="400" height="400">
<path d="M0 16C0 7.16345 7.16344 0 16 0H384C392.837 0 400 7.16344 400 16V384C400 392.837 392.837 400 384 400H16C7.16345 400 0 392.837 0 384V16Z" fill="white"/>
</mask>
<g mask="url(#mask0_109_386)">
<path d="M392.457 182.166L217.813 8.50147C207.761 -1.50049 191.449 -1.50049 181.385 8.50147L145.119 44.5657L191.124 90.3149C201.814 86.7224 214.074 89.1324 222.596 97.607C231.158 106.136 233.565 118.431 229.865 129.097L274.201 173.188C284.927 169.513 297.304 171.891 305.871 180.424C317.844 192.326 317.844 211.617 305.871 223.527C293.894 235.439 274.496 235.439 262.513 223.527C253.507 214.562 251.282 201.409 255.841 190.375L214.494 149.258L214.489 257.461C217.487 258.935 220.224 260.882 222.596 263.226C234.569 275.128 234.569 294.42 222.596 306.34C210.619 318.245 191.211 318.245 179.252 306.34C167.278 294.42 167.278 275.13 179.252 263.227C182.121 260.373 185.531 258.112 189.285 256.575V147.363C185.526 145.838 182.114 143.575 179.252 140.712C170.18 131.703 167.999 118.465 172.647 107.388L127.297 62.2855L7.54689 181.363C-2.51563 191.374 -2.51563 207.597 7.54689 217.601L182.194 391.269C192.249 401.272 208.558 401.272 218.625 391.269L392.455 218.407C402.515 208.401 402.515 192.168 392.455 182.166" fill="#999999"/>
</g>
</svg>
