<svg width="102" height="33" viewBox="0 0 102 33" fill="none" xmlns="http://www.w3.org/2000/svg">
<path d="M23.1508 18.5863V20.7072C23.1484 20.7912 23.1532 20.8752 23.1651 20.9584C23.1926 21.2096 23.3468 21.3628 23.5735 21.4332C23.785 21.4889 23.9999 21.5309 24.2168 21.5588C24.3424 21.5731 24.3843 21.6283 24.3986 21.7631C24.4129 22.2379 24.371 22.294 23.9105 22.2655C22.8363 22.2093 21.761 22.196 20.6868 22.2655H20.5847C20.2497 22.2797 20.2222 22.2512 20.2222 21.9162C20.2222 21.8601 20.2365 21.7906 20.2365 21.7345C20.2365 21.6324 20.3059 21.5813 20.4039 21.5813C20.6286 21.5537 20.8369 21.4976 21.0472 21.4557C21.3403 21.3863 21.5068 21.2045 21.5353 20.9114C21.5762 20.5908 21.5762 20.2559 21.5762 19.9342L21.5905 16.1949C21.5951 16.0864 21.5687 15.9789 21.5145 15.8849C21.4602 15.7908 21.3803 15.7142 21.2841 15.6639C21.0316 15.5236 20.7646 15.4113 20.4877 15.329C20.4039 15.3014 20.3202 15.2881 20.2508 15.2452C20.0465 15.1472 20.0414 14.9665 20.2365 14.8541C20.3059 14.8133 20.3896 14.7847 20.4734 14.7704C21.3202 14.6454 22.1523 14.435 22.9567 14.1424C23.1242 14.0862 23.1661 14.1016 23.1814 14.268C23.1957 14.3701 23.1814 14.4927 23.1671 14.5886C23.1395 14.7704 23.1395 14.9511 23.1395 15.1196C23.1395 15.1891 23.1538 15.2595 23.2233 15.3014C23.2927 15.3433 23.3632 15.3014 23.4275 15.2605C23.7205 15.0359 24.0136 14.8276 24.3342 14.6479C24.7938 14.3967 25.2839 14.173 25.8149 14.1036C26.4582 14.0199 27.0147 14.1873 27.5038 14.606C27.706 14.787 27.8842 14.9933 28.0338 15.2197C28.1737 15.4239 28.1869 15.429 28.3687 15.2891C28.8997 14.898 29.4572 14.5498 30.0576 14.2986C30.6856 14.0331 31.3279 13.9923 31.9692 14.2149C32.6248 14.4518 33.072 14.9123 33.3375 15.5403C33.5621 16.0427 33.6581 16.5614 33.6581 17.1026V20.842C33.6581 21.0932 33.7602 21.2505 34.0074 21.373C34.2728 21.4751 34.5659 21.5262 34.8447 21.5823C35.0264 21.6232 35.0264 21.6232 35.0264 21.807C34.9989 22.2665 34.957 22.2951 34.5097 22.2665C33.3898 22.2037 32.2672 22.2037 31.1472 22.2665C30.9225 22.2808 30.9225 22.2808 30.9103 22.0571V21.9877C30.896 21.6099 30.896 21.6099 31.2595 21.5282L31.622 21.4302C31.7448 21.4013 31.8543 21.3319 31.9329 21.2331C32.0114 21.1344 32.0544 21.0121 32.055 20.8859L32.0958 19.8393L32.0682 17.1047C32.0575 16.8605 32.0057 16.6199 31.9151 16.393C31.5658 15.5413 30.799 15.235 30.0587 15.3187C29.5001 15.3749 29.012 15.5975 28.5515 15.9192C28.4535 15.9886 28.384 16.0723 28.3983 16.2122C28.5239 17.1057 28.4392 17.9992 28.4545 18.8917V20.8318C28.4545 21.181 28.5944 21.3485 28.9293 21.4322L29.5726 21.5721C29.6706 21.5864 29.7258 21.6283 29.7258 21.7396V21.8417C29.7115 22.2328 29.6849 22.2501 29.2928 22.246C28.1767 22.1899 27.0596 22.2052 25.9578 22.246C25.58 22.2603 25.5494 22.2185 25.5667 21.8376C25.581 21.613 25.6076 21.6007 25.8179 21.5588L26.2774 21.4751C26.6859 21.3914 26.836 21.2382 26.8636 20.8052L26.9044 19.8699L26.8768 17.0649C26.8493 16.7156 26.7747 16.3807 26.5838 16.0601C26.305 15.5434 25.869 15.2789 25.2716 15.2503C24.6712 15.2095 24.1413 15.4321 23.6378 15.7098C23.2886 15.9141 23.1354 16.1561 23.163 16.5615V18.5986L23.1508 18.5863ZM49.4416 18.6711V20.6388C49.4439 20.7787 49.4531 20.9184 49.4692 21.0575C49.4752 21.1501 49.5111 21.2383 49.5715 21.3089C49.6318 21.3794 49.7135 21.4284 49.8041 21.4485C50.0449 21.5187 50.293 21.5609 50.5434 21.5741C50.6833 21.5884 50.7109 21.6436 50.7252 21.7559V21.8539C50.7109 22.342 50.6558 22.3982 50.1809 22.3706C49.119 22.3012 48.0601 22.3145 46.9991 22.3706L46.5907 22.3849C46.5069 22.3849 46.4886 22.3441 46.4651 22.2869C46.4243 22.0936 46.4243 21.894 46.4651 21.7008C46.4794 21.617 46.5345 21.5987 46.6182 21.5752C46.8225 21.5476 46.996 21.5057 47.1901 21.4731C47.5393 21.3893 47.6649 21.2484 47.6782 20.8869L47.719 19.7147V16.2817C47.719 16.0305 47.621 15.8773 47.3984 15.765C47.1472 15.6251 46.8817 15.5281 46.6019 15.43C46.5182 15.4025 46.4344 15.3739 46.365 15.332C46.1832 15.2064 46.1608 15.0257 46.3374 14.8858C46.4166 14.8207 46.514 14.7815 46.6162 14.7735C47.5097 14.6336 48.3746 14.4385 49.2119 14.1036C49.3099 14.0628 49.3518 14.0893 49.3937 14.173C49.4355 14.2568 49.4498 14.3548 49.4345 14.4518L49.3937 15.1074C49.3937 15.1911 49.3528 15.3116 49.4212 15.3443C49.505 15.4004 49.5611 15.2748 49.6305 15.2422C50.0426 14.8965 50.4977 14.6058 50.9846 14.3773C51.4175 14.173 51.8627 14.0423 52.3661 14.0709C53.3015 14.1271 53.9713 14.6019 54.4033 15.4249C54.6279 15.8579 54.7239 16.3317 54.7658 16.8208L54.8066 17.8419L54.8209 20.9257C54.8352 21.1626 54.919 21.3168 55.1559 21.4006C55.4014 21.4824 55.6535 21.5432 55.9094 21.5823C56.1341 21.6099 56.1463 21.6518 56.1606 21.8611V21.9305C56.1331 22.4053 56.1045 22.4186 55.6297 22.39C54.5885 22.3342 53.5451 22.3342 52.504 22.39C52.3641 22.4043 52.2252 22.39 52.0955 22.4043C52.0118 22.4043 51.9557 22.39 51.9424 22.3063C51.9148 22.1245 51.8862 21.9438 51.9281 21.7477C51.9424 21.664 51.9842 21.6221 52.0812 21.6078L52.7246 21.5057C52.9492 21.4496 53.0738 21.3015 53.1024 21.0973L53.1299 20.7062L53.1156 17.7899C53.1156 17.4549 53.1013 17.12 53.0319 16.7851C52.8644 16.0703 52.3202 15.5597 51.5819 15.4883C50.9386 15.4188 50.3566 15.5863 49.8235 15.9345C49.5581 16.1019 49.4457 16.3388 49.4457 16.6319V18.7395C49.4457 18.6987 49.4457 18.6987 49.46 18.6987L49.4416 18.6711Z" fill="#47474A"/>
<path d="M90.3132 14.7214C90.16 13.7024 89.7822 12.7956 89.1266 12.0001C88.5554 11.2974 87.8161 10.7502 86.9771 10.4092C86.099 10.0467 85.1626 9.93441 84.214 9.90684C83.8229 9.89254 78.4926 9.97628 78.1015 9.90684C78.0035 9.89254 77.9341 9.92114 77.8769 10.0049C77.8074 10.107 77.737 10.2142 77.6951 10.3255C77.5277 10.7033 77.5277 10.6747 77.932 10.7299C78.267 10.786 78.5876 10.8136 78.9092 10.9116C79.2023 11.0097 79.4116 11.1771 79.4811 11.4978C79.5086 11.6509 79.5372 16.5625 79.5372 18.8519L79.4811 20.4857C79.4668 20.6113 79.4535 20.7369 79.4116 20.8482C79.3555 21.0156 79.2585 21.1545 79.091 21.226C78.9067 21.3127 78.708 21.3646 78.5049 21.3792C78.1271 21.42 78.0719 21.4353 77.9463 21.854L77.9055 22.0072C77.8779 22.1889 77.8912 22.2165 78.0729 22.2165L82.2453 22.2573L83.8791 22.2298L85.0094 22.0899C86.293 21.853 87.4377 21.322 88.4139 20.4714C88.9715 19.9789 89.4268 19.3814 89.7536 18.713C90.1447 17.9319 90.3121 17.0792 90.354 16.2153C90.4234 15.7272 90.3948 15.2249 90.3132 14.7225V14.7214ZM88.2893 16.7024C88.2331 17.5959 88.0524 18.4608 87.5919 19.242C87.0057 20.261 86.1684 20.9728 85.0105 21.2229C84.5081 21.325 84.0057 21.3761 83.4788 21.3067C83.101 21.2658 82.7395 21.2229 82.3903 21.0973C81.7623 20.8727 81.5386 20.4847 81.5254 19.872L81.5111 11.4579C81.5111 10.9555 81.7357 10.8453 82.0972 10.8299C82.6415 10.7891 83.2 10.8024 83.7443 10.8575C84.3237 10.9135 84.8922 11.051 85.4332 11.266C85.8351 11.4335 86.2074 11.6645 86.536 11.9501C87.2896 12.5934 87.792 13.4001 88.0677 14.3497C88.2924 15.1176 88.3332 15.8988 88.2924 16.68L88.2893 16.7024ZM101.911 18.0707C101.911 17.987 101.911 17.9176 101.897 17.8338C101.771 17.0659 101.366 16.4798 100.739 16.0336C100.334 15.7405 99.8739 15.5455 99.3991 15.4056C99.3154 15.378 99.2459 15.3494 99.1622 15.3362C99.1765 15.2667 99.2184 15.2524 99.2602 15.2381C99.539 15.0982 99.8045 14.9451 100.041 14.7357C100.474 14.3732 100.756 13.926 100.906 13.3817C100.99 13.0887 100.99 12.7956 100.962 12.4882C100.94 12.1287 100.836 11.7789 100.66 11.4647C100.483 11.1506 100.239 10.8803 99.9434 10.6737C99.3001 10.1989 98.5475 10.0038 97.7663 9.98955C96.2592 9.96198 94.7387 9.98955 93.2325 9.98955C92.7996 9.98955 92.3677 10.0171 91.9204 9.94871C91.8367 9.93441 91.7162 9.90786 91.6549 10.0049C91.5528 10.1866 91.4303 10.3674 91.3894 10.5767C91.3751 10.6747 91.4037 10.7299 91.515 10.7442L92.4779 10.8841C92.8558 10.9402 93.1212 11.1495 93.1478 11.4845C93.1752 11.7159 93.1888 11.9488 93.1886 12.1819L93.1611 14.7909L93.1468 19.9537C93.1468 20.26 93.1059 20.5541 93.0487 20.8604C93.035 20.9577 92.9935 21.0489 92.9292 21.1232C92.8649 21.1974 92.7805 21.2516 92.6863 21.2791C92.4075 21.3628 92.142 21.4466 91.8489 21.4466C91.7706 21.4391 91.6921 21.4585 91.6262 21.5016C91.5604 21.5446 91.5111 21.6087 91.4864 21.6835C91.4303 21.8091 91.3843 21.949 91.3608 22.0746C91.3333 22.242 91.3751 22.2992 91.5426 22.2788C91.6682 22.2645 96.2735 22.3768 97.1383 22.2931C97.655 22.2369 98.1595 22.1675 98.6731 22.0143C99.5513 21.7355 100.362 21.3302 101.003 20.646C101.534 20.0874 101.841 19.4176 101.868 18.6364C101.909 18.4547 101.909 18.2739 101.909 18.0779L101.911 18.0707ZM95.1431 12.3524L95.1839 11.2363C95.1839 11.027 95.2676 10.93 95.477 10.8871C95.8119 10.8177 96.1468 10.8463 96.4818 10.8595C96.8167 10.8871 97.1373 10.929 97.4723 11.027C98.0849 11.2088 98.5608 11.558 98.8406 12.1431C98.9675 12.4091 99.0341 12.6999 99.0356 12.9947C99.0499 13.3858 99.0213 13.7626 98.8681 14.1384C98.6312 14.6551 98.2555 14.99 97.7102 15.088C97.1649 15.1861 95.6169 15.1442 95.38 15.1442C95.1706 15.1442 95.1553 15.1166 95.1553 14.9073V13.5931C95.1225 13.1844 95.1177 12.774 95.141 12.3647L95.1431 12.3524ZM99.6769 19.8597C99.44 20.4877 99.007 20.9217 98.3933 21.1566C98.0584 21.2822 97.7235 21.3608 97.3722 21.3383C96.9392 21.324 96.5073 21.3383 96.0754 21.2546C95.4892 21.129 95.2237 20.5704 95.1819 20.1661C95.1124 19.4543 95.1543 18.7283 95.141 18.1984V16.3563C95.141 16.1316 95.1686 16.0632 95.4065 16.0632L96.7187 16.0775L97.6122 16.1796C98.2401 16.3195 98.812 16.5574 99.2592 17.0445C99.6217 17.4356 99.8178 17.9094 99.8596 18.4261C99.9005 18.9142 99.8739 19.389 99.6922 19.8495L99.6769 19.8597Z" fill="#C2BFBF"/>
<path d="M64.2204 15.6557L64.5829 15.7119C64.974 15.7262 65.4345 15.5863 65.5734 15.042C65.65 14.7821 65.65 14.5055 65.5734 14.2456C65.4896 14.2456 65.4478 14.315 65.4059 14.3436C65.1966 14.511 64.9597 14.6091 64.7085 14.6366C64.2061 14.6928 63.7037 14.6642 63.2156 14.4835L62.5314 14.2466C62.0543 14.0903 61.5521 14.0245 61.0508 14.0526C60.3391 14.1087 59.6692 14.3456 59.0412 14.6806C58.3714 15.0431 57.8976 15.5873 57.6729 16.3276C57.5473 16.7606 57.533 17.2058 57.5892 17.653C57.7291 18.6721 58.2591 19.3839 59.2077 19.7606C59.2638 19.7749 59.3057 19.8015 59.3609 19.8168C59.4865 19.8862 59.5007 19.9567 59.3884 20.0537L59.0392 20.2906L58.2019 20.8073C57.9925 20.9329 57.965 21.0319 58.0344 21.2535C58.1175 21.5142 58.2721 21.7463 58.4806 21.9234C58.6721 22.0877 58.8891 22.2198 59.1229 22.3145C59.2761 22.3839 59.2761 22.4166 59.1372 22.5391L58.3408 23.111C58.0753 23.3152 57.8098 23.5194 57.5872 23.7808C57.4324 23.9465 57.3208 24.1478 57.2624 24.3668C57.2039 24.5859 57.2005 24.816 57.2522 25.0368C57.356 25.5212 57.6097 25.9606 57.9772 26.2928C58.3401 26.6288 58.7814 26.8686 59.2608 26.9902C60.0419 27.2149 60.8517 27.2271 61.6472 27.0739C62.7908 26.8646 63.7915 26.3591 64.5778 25.4973C65.122 24.9255 65.4427 24.2556 65.4713 23.4551C65.5017 22.9921 65.367 22.5333 65.091 22.1603C64.8151 21.7873 64.4157 21.5242 63.9641 21.4179L63.2105 21.278L60.9079 21.0738C60.6567 21.0595 60.4055 21.0177 60.1961 20.8921C59.9306 20.7246 59.8612 20.404 60.0287 20.1946C60.1543 20.0415 60.3074 19.9434 60.5035 19.9291L60.9497 19.8883C61.8322 19.7985 62.6607 19.4211 63.3075 18.8141C63.6529 18.4944 63.8998 18.0827 64.0192 17.6275C64.1867 17.0271 64.1867 16.4022 64.0468 15.7895C64.0059 15.6363 64.0192 15.622 64.2143 15.6496L64.2204 15.6557ZM60.7996 22.6065C60.8833 22.6208 60.9671 22.6065 61.0508 22.6065C61.6369 22.6341 62.2374 22.676 62.8092 22.8312C62.9959 22.8863 63.1779 22.9563 63.3534 23.0405C63.912 23.3468 64.1213 23.8778 64.0509 24.4496C63.9671 25.0776 63.6179 25.5239 63.0737 25.818C62.7112 26.0222 62.3058 26.111 61.8871 26.1529C61.7339 26.1672 61.594 26.1529 61.4409 26.1529C60.9528 26.1672 60.478 26.112 60.0174 25.916C59.6968 25.7904 59.4313 25.6096 59.1944 25.3574C58.7063 24.8693 58.4796 23.9758 59.2087 23.2498C59.6549 22.8414 60.1583 22.5524 60.7996 22.6065ZM62.3905 18.2524C62.0975 18.9917 61.4552 19.2154 60.8139 19.1173C60.2278 19.0336 59.7948 18.713 59.5171 18.182C59.1546 17.4703 59.0576 16.732 59.2659 15.9631C59.4191 15.3913 59.7683 14.9583 60.382 14.8603C61.1631 14.7204 61.9137 15.0002 62.3078 15.7813C62.512 16.1591 62.6009 16.6186 62.6009 17.2742C62.5866 17.5397 62.5314 17.9022 62.3915 18.2514L62.3905 18.2524ZM44.8088 17.3028C44.6832 16.5492 44.4044 15.8651 43.8878 15.2932C43.1199 14.4416 42.1437 14.0679 41.0409 14.0648C40.0779 14.0505 39.1722 14.3303 38.3614 14.8327C37.5644 15.3097 36.9801 16.0737 36.7287 16.9679C36.4918 17.7776 36.504 18.6017 36.6878 19.4237C37.1759 21.6293 38.8791 22.5769 40.9153 22.438C41.5157 22.3972 42.0875 22.2011 42.6308 21.9356C43.4405 21.5578 44.0266 20.9584 44.431 20.163C44.7516 19.5074 44.8905 18.809 44.8772 18.0135L44.8078 17.3018L44.8088 17.3028ZM42.8278 20.4009C42.728 20.7149 42.5389 20.993 42.2836 21.2012C42.0282 21.4093 41.7177 21.5386 41.3901 21.5731C40.7774 21.6569 40.2035 21.5037 39.6879 21.1402C39.3156 20.8663 39.0142 20.5075 38.8087 20.0935C38.2369 18.9213 38.1388 17.6939 38.4309 16.4379C38.5249 16.0492 38.7283 15.6956 39.017 15.4188C39.5337 14.944 40.1331 14.8327 40.804 14.9726C41.4473 15.1125 41.9344 15.4607 42.3357 15.9917C42.737 16.5227 42.9218 17.1353 43.0331 17.7786C43.0892 18.0993 43.0892 18.4342 43.1025 18.6435C43.1025 19.3134 43.0464 19.8689 42.837 20.4019L42.8278 20.4009ZM75.2996 17.4151C75.1975 16.6054 74.8952 15.8661 74.3224 15.2524C73.5688 14.4294 72.5916 14.0801 71.5041 14.0658C70.5687 14.0515 69.7038 14.317 68.9084 14.7776C68.0149 15.3085 67.4012 16.0611 67.1643 17.0802C66.8814 18.192 67 19.368 67.4992 20.4009C67.9587 21.3781 68.7409 22.0061 69.7743 22.2849C70.9179 22.5912 72.0075 22.4523 73.0674 21.9356C73.9885 21.4894 74.644 20.792 75.0208 19.8423C75.2455 19.2838 75.3272 18.6844 75.3414 17.9859C75.3557 17.8603 75.3272 17.6367 75.3006 17.4141L75.2996 17.4151ZM73.3737 20.2202C73.1491 20.9737 72.6763 21.4618 71.8809 21.5742C71.2947 21.6579 70.7372 21.518 70.2338 21.1831C69.8008 20.89 69.4945 20.4989 69.2709 20.0394C69.0197 19.5513 68.8798 19.0346 68.8246 18.5047C68.7409 17.8491 68.7409 17.2078 68.8941 16.5513C68.9233 16.4218 68.9653 16.2956 69.0197 16.1745C69.4108 15.1972 70.2756 14.751 71.2947 14.9746C71.9789 15.1278 72.4945 15.5056 72.8856 16.0775C73.2635 16.636 73.4442 17.2497 73.5289 17.9155C73.5698 18.181 73.5851 18.4597 73.5698 18.6966C73.5698 19.2409 73.5289 19.7433 73.3656 20.2314L73.3737 20.2202Z" fill="#47474A"/>
<path d="M8.02383 0L8.85868 1.55933C9.04638 1.84708 9.24972 2.10179 9.48923 2.33899C10.1914 3.02856 10.8459 3.76454 11.4483 4.54188C12.8629 6.38897 13.817 8.4402 14.4984 10.6586C14.907 12.0138 15.1289 13.404 15.1455 14.8097C15.214 19.0123 13.7652 22.621 10.8442 25.62C10.369 26.0956 9.85572 26.5319 9.30935 26.9247C9.01999 26.9247 8.88312 26.704 8.76386 26.5008C8.54667 26.124 8.40212 25.7103 8.33763 25.2808C8.23499 24.7723 8.16753 24.2639 8.20077 23.7389V23.5017C8.17731 23.4512 7.92216 0.119574 8.02383 0Z" fill="#777777"/>
<path d="M6.9282 0.0334449C6.89399 -0.0346056 6.85977 0.0169183 6.82556 0.0499715C6.84218 0.390224 6.72291 0.693535 6.53619 0.983236C6.3309 1.27099 6.05913 1.49167 5.78639 1.72888C4.27113 3.0335 3.07848 4.60936 2.12338 6.37187C0.852527 8.74391 0.197547 11.2861 0.011806 13.9624C-0.0732437 14.9278 0.318767 18.3342 0.62475 19.317C1.45961 21.9263 2.95922 24.1126 4.90167 26.0103C5.37874 26.4672 5.88903 26.891 6.41693 27.2984C6.57041 27.2984 6.58703 27.1623 6.62222 27.0612C6.68951 26.8448 6.74081 26.6239 6.7757 26.4001L7.11786 23.8589L6.9282 0.0334449Z" fill="#999999"/>
<path d="M8.34613 29.6585C8.38035 29.2697 8.56805 28.9469 8.77236 28.6251C8.56707 28.5406 8.41456 28.3724 8.2953 28.1847C8.19246 28.0071 8.10733 27.8199 8.04113 27.6258C7.8026 26.9142 7.75176 26.1675 7.68333 25.4404V25C7.59828 25.0681 7.58068 25.6436 7.58068 25.7291C7.53094 26.4977 7.42838 27.2619 7.27372 28.0166C7.22289 28.3218 7.18867 28.6261 7 28.8973C7 28.9314 7 28.9654 7.01662 29.0159C7.32358 29.9142 7.40765 30.829 7.45946 31.7613V32.1015C7.45946 32.5079 7.44285 32.4223 7.78207 32.5584C7.91893 32.609 8.07143 32.6265 8.20829 32.7276C8.31094 32.7276 8.32756 32.643 8.32756 32.575L8.27673 32.016V30.4567C8.26011 30.1845 8.31094 29.9142 8.34516 29.6595L8.34613 29.6585Z" fill="#C2BFBF"/>
</svg>
