<svg width="400" height="400" viewBox="0 0 400 400" fill="none" xmlns="http://www.w3.org/2000/svg">
<mask id="mask0_109_339" style="mask-type:alpha" maskUnits="userSpaceOnUse" x="0" y="0" width="400" height="400">
<path d="M0 16C0 7.16345 7.16344 0 16 0H384C392.837 0 400 7.16344 400 16V384C400 392.837 392.837 400 384 400H16C7.16345 400 0 392.837 0 384V16Z" fill="white"/>
</mask>
<g mask="url(#mask0_109_339)">
<path d="M200 234.878C219.282 234.878 234.914 219.333 234.914 200.158C234.914 180.983 219.282 165.438 200 165.438C180.718 165.438 165.086 180.983 165.086 200.158C165.086 219.333 180.718 234.878 200 234.878Z" fill="#999999"/>
<path fill-rule="evenodd" clip-rule="evenodd" d="M35.8366 181.889C27.9192 188.997 25.3167 195.194 25.3167 200.158C25.3167 205.122 27.9192 211.319 35.8366 218.426C43.7488 225.529 55.9122 232.505 72.0228 238.622C104.155 250.823 149.398 258.632 200 258.632C250.602 258.632 295.845 250.823 327.977 238.622C344.088 232.505 356.251 225.529 364.163 218.426C372.081 211.319 374.683 205.122 374.683 200.158C374.683 195.194 372.081 188.997 364.163 181.889C356.251 174.786 344.088 167.81 327.977 161.693C295.845 149.492 250.602 141.683 200 141.683C149.398 141.683 104.155 149.492 72.0228 161.693C55.9122 167.81 43.7488 174.786 35.8366 181.889ZM63.0361 138.025C98.7083 124.48 147.136 116.366 200 116.366C252.864 116.366 301.292 124.48 336.964 138.025C354.755 144.78 370.028 153.132 381.075 163.05C392.118 172.963 400 185.479 400 200.158C400 214.837 392.118 227.353 381.075 237.265C370.028 247.183 354.755 255.535 336.964 262.29C301.292 275.835 252.864 283.949 200 283.949C147.136 283.949 98.7083 275.835 63.0361 262.29C45.2445 255.535 29.9724 247.183 18.9246 237.265C7.88203 227.353 0 214.837 0 200.158C0 185.479 7.88203 172.963 18.9246 163.05C29.9724 153.132 45.2445 144.78 63.0361 138.025Z" fill="#999999"/>
<path fill-rule="evenodd" clip-rule="evenodd" d="M133.93 49.6706C123.794 46.4099 117.061 47.2507 112.685 49.7636C108.308 52.2764 104.209 57.6543 101.981 68.0136C99.7529 78.3737 99.7594 92.3274 102.486 109.25C107.924 143.004 123.737 185.856 149.03 229.421C174.323 272.987 203.735 308.032 230.411 329.592C243.785 340.401 255.934 347.384 266.07 350.645C276.206 353.906 282.938 353.065 287.315 350.552C291.692 348.039 295.79 342.661 298.018 332.302C300.247 321.942 300.24 307.988 297.514 291.066C292.076 257.312 276.263 214.46 250.969 170.894C225.676 127.328 196.265 92.2837 169.588 70.7233C156.215 59.9141 144.066 52.9316 133.93 49.6706ZM185.547 51.1224C215.194 75.0836 246.485 112.748 272.925 158.288C299.364 203.829 316.519 249.61 322.563 287.122C325.577 305.833 325.94 323.171 322.826 337.65C319.712 352.13 312.756 365.138 300.026 372.446C287.297 379.755 272.491 379.241 258.324 374.683C244.158 370.126 229.24 361.145 214.452 349.193C184.806 325.232 153.515 287.568 127.075 242.027C100.635 196.486 83.4804 150.706 77.4368 113.193C74.4223 94.4823 74.0595 77.1443 77.1737 62.6654C80.2881 48.1858 87.2438 35.1778 99.9733 27.8693C112.703 20.5607 127.509 21.0744 141.676 25.632C155.842 30.1894 170.76 39.1709 185.547 51.1224Z" fill="#999999"/>
<path fill-rule="evenodd" clip-rule="evenodd" d="M298.018 68.0133C295.79 57.654 291.692 52.2761 287.315 49.7633C282.938 47.2504 276.206 46.4096 266.07 49.6704C255.934 52.9313 243.785 59.9138 230.411 70.723C203.735 92.2834 174.324 127.328 149.03 170.894C123.737 214.459 107.924 257.311 102.486 291.065C99.7594 307.988 99.7529 321.941 101.981 332.302C104.209 342.661 108.308 348.039 112.685 350.552C117.061 353.064 123.794 353.905 133.93 350.644C144.066 347.384 156.215 340.401 169.589 329.592C196.265 308.031 225.676 272.987 250.969 229.421C276.263 185.855 292.076 143.004 297.514 109.25C300.24 92.3271 300.247 78.3734 298.018 68.0133ZM322.563 113.193C316.519 150.705 299.364 196.486 272.925 242.027C246.485 287.567 215.194 325.232 185.547 349.193C170.76 361.144 155.842 370.126 141.676 374.683C127.509 379.241 112.703 379.754 99.9734 372.446C87.2439 365.137 80.2881 352.129 77.1738 337.65C74.0596 323.171 74.4223 305.833 77.4368 287.122C83.4804 249.609 100.635 203.829 127.075 158.288C153.515 112.748 184.806 75.0833 214.453 51.1222C229.24 39.1706 244.158 30.1891 258.324 25.6317C272.491 21.0741 287.297 20.5604 300.026 27.869C312.756 35.1776 319.712 48.1856 322.826 62.6651C325.94 77.144 325.577 94.4821 322.563 113.193Z" fill="#999999"/>
</g>
</svg>
