<svg width="400" height="400" viewBox="0 0 400 400" fill="none" xmlns="http://www.w3.org/2000/svg">
<path d="M112.724 166.872C112.724 171.795 113.256 175.786 114.187 178.713C115.252 181.639 116.582 184.832 118.445 188.291C119.11 189.356 119.376 190.42 119.376 191.351C119.376 192.681 118.578 194.012 116.848 195.342L108.467 200.93C107.27 201.728 106.072 202.127 105.008 202.127C103.678 202.127 102.347 201.462 101.017 200.264C99.1544 198.269 97.5579 196.14 96.2276 194.012C94.8972 191.75 93.5668 189.223 92.1035 186.163C81.7267 198.402 68.6891 204.522 52.9909 204.522C41.8159 204.522 32.9025 201.329 26.3837 194.943C19.865 188.557 16.5391 180.043 16.5391 169.4C16.5391 158.092 20.5301 148.913 28.6453 141.995C36.7605 135.077 47.5364 131.618 61.2391 131.618C65.7623 131.618 70.4186 132.017 75.3409 132.682C80.2633 133.347 85.3186 134.412 90.6401 135.609V125.897C90.6401 115.787 88.5115 108.736 84.3874 104.612C80.1302 100.488 72.9463 98.492 62.7025 98.492C58.0463 98.492 53.257 99.0241 48.3346 100.221C43.4123 101.419 38.623 102.882 33.9668 104.745C31.8382 105.676 30.2418 106.208 29.3105 106.474C28.3793 106.74 27.7141 106.873 27.1819 106.873C25.3194 106.873 24.3882 105.543 24.3882 102.749V96.2304C24.3882 94.1018 24.6543 92.5054 25.3194 91.5741C25.9846 90.6429 27.1819 89.7116 29.0444 88.7804C33.7007 86.3857 39.2882 84.3902 45.807 82.7938C52.3257 81.0643 59.2436 80.2661 66.5606 80.2661C82.3918 80.2661 93.966 83.858 101.416 91.042C108.733 98.2259 112.458 109.135 112.458 123.769V166.872H112.724ZM58.7114 187.094C63.1016 187.094 67.6248 186.296 72.4141 184.699C77.2034 183.103 81.4606 180.176 85.0526 176.185C87.1811 173.657 88.7776 170.864 89.5758 167.671C90.374 164.478 90.9061 160.62 90.9061 156.097V150.509C87.0481 149.578 82.924 148.78 78.6668 148.247C74.4097 147.715 70.2856 147.449 66.1615 147.449C57.2481 147.449 50.7293 149.179 46.3391 152.771C41.9489 156.363 39.8203 161.418 39.8203 168.07C39.8203 174.322 41.4168 178.979 44.7427 182.172C47.9355 185.497 52.5918 187.094 58.7114 187.094ZM165.539 201.462C163.145 201.462 161.548 201.063 160.484 200.131C159.42 199.333 158.488 197.471 157.69 194.943L126.427 92.1063C125.628 89.4456 125.229 87.7161 125.229 86.7848C125.229 84.6563 126.294 83.4589 128.422 83.4589H141.46C143.987 83.4589 145.717 83.858 146.648 84.7893C147.712 85.5875 148.511 87.45 149.309 89.9777L171.659 178.047L192.413 89.9777C193.078 87.317 193.876 85.5875 194.94 84.7893C196.004 83.9911 197.867 83.4589 200.262 83.4589H210.904C213.432 83.4589 215.162 83.858 216.226 84.7893C217.29 85.5875 218.221 87.45 218.754 89.9777L239.773 179.112L262.788 89.9777C263.587 87.317 264.518 85.5875 265.449 84.7893C266.514 83.9911 268.243 83.4589 270.638 83.4589H283.01C285.139 83.4589 286.336 84.5232 286.336 86.7848C286.336 87.45 286.203 88.1152 286.07 88.9134C285.937 89.7116 285.671 90.7759 285.139 92.2393L253.077 195.076C252.279 197.737 251.347 199.466 250.283 200.264C249.219 201.063 247.489 201.595 245.228 201.595H233.787C231.259 201.595 229.53 201.196 228.465 200.264C227.401 199.333 226.47 197.604 225.938 194.943L205.317 109.135L184.829 194.81C184.164 197.471 183.366 199.2 182.302 200.131C181.238 201.063 179.375 201.462 176.98 201.462H165.539ZM336.49 205.054C329.573 205.054 322.655 204.256 316.003 202.659C309.351 201.063 304.163 199.333 300.704 197.338C298.575 196.14 297.112 194.81 296.58 193.613C296.047 192.415 295.781 191.085 295.781 189.888V183.103C295.781 180.309 296.846 178.979 298.841 178.979C299.639 178.979 300.438 179.112 301.236 179.378C302.034 179.644 303.231 180.176 304.562 180.708C309.085 182.704 314.007 184.3 319.196 185.364C324.517 186.429 329.706 186.961 335.027 186.961C343.408 186.961 349.927 185.497 354.45 182.571C358.973 179.644 361.368 175.387 361.368 169.932C361.368 166.207 360.171 163.147 357.776 160.62C355.382 158.092 350.858 155.83 344.34 153.702L325.049 147.715C315.338 144.655 308.154 140.132 303.764 134.146C299.373 128.292 297.112 121.773 297.112 114.855C297.112 109.268 298.309 104.346 300.704 100.088C303.098 95.8313 306.291 92.1063 310.282 89.1795C314.273 86.1197 318.797 83.858 324.118 82.2616C329.439 80.6652 335.027 80 340.881 80C343.807 80 346.867 80.133 349.794 80.5321C352.854 80.9313 355.648 81.4634 358.441 81.9955C361.102 82.6607 363.63 83.3259 366.024 84.1241C368.419 84.9223 370.281 85.7205 371.612 86.5188C373.474 87.583 374.805 88.6473 375.603 89.8447C376.401 90.9089 376.8 92.3723 376.8 94.2348V100.488C376.8 103.281 375.736 104.745 373.74 104.745C372.676 104.745 370.947 104.213 368.685 103.148C361.102 99.6893 352.588 97.9599 343.142 97.9599C335.559 97.9599 329.573 99.1572 325.448 101.685C321.324 104.213 319.196 108.071 319.196 113.525C319.196 117.25 320.526 120.443 323.187 122.971C325.848 125.498 330.77 128.026 337.821 130.288L356.712 136.274C366.29 139.334 373.208 143.591 377.332 149.046C381.457 154.5 383.452 160.753 383.452 167.671C383.452 173.391 382.255 178.58 379.993 183.103C377.598 187.626 374.406 191.617 370.281 194.81C366.157 198.136 361.235 200.531 355.515 202.26C349.528 204.123 343.275 205.054 336.49 205.054Z" fill="#444444"/>
<path fill-rule="evenodd" clip-rule="evenodd" d="M361.634 269.709C317.865 302.037 254.274 319.198 199.596 319.198C122.968 319.198 53.9221 290.862 1.77206 243.767C-2.35205 240.042 1.37295 234.986 6.29528 237.913C62.7024 270.64 132.28 290.462 204.252 290.462C252.811 290.462 306.158 280.352 355.248 259.598C362.565 256.272 368.818 264.387 361.634 269.709Z" fill="#999999"/>
<path fill-rule="evenodd" clip-rule="evenodd" d="M379.86 248.955C374.272 241.771 342.876 245.496 328.641 247.226C324.384 247.758 323.719 244.033 327.577 241.239C352.588 223.678 393.696 228.734 398.485 234.587C403.274 240.574 397.154 281.682 373.74 301.371C370.148 304.431 366.689 302.835 368.286 298.844C373.607 285.673 385.447 256.006 379.86 248.955Z" fill="#999999"/>
</svg>
