<svg width="400" height="400" viewBox="0 0 400 400" fill="none" xmlns="http://www.w3.org/2000/svg">
<mask id="mask0_109_345" style="mask-type:alpha" maskUnits="userSpaceOnUse" x="0" y="0" width="400" height="400">
<path d="M0 16C0 7.16345 7.16344 0 16 0H384C392.837 0 400 7.16344 400 16V384C400 392.837 392.837 400 384 400H16C7.16345 400 0 392.837 0 384V16Z" fill="white"/>
</mask>
<g mask="url(#mask0_109_345)">
<path d="M122.545 236.36C102.673 236.36 86.476 220.034 86.476 200.02C86.476 180.006 102.673 163.68 122.545 163.68C142.416 163.68 158.613 180.006 158.613 200.02C158.613 220.02 142.402 236.36 122.545 236.36ZM35.94 308.511C16.0973 308.469 -0.0570322 292.071 0.000151348 272.057C0.0114838 262.458 3.82784 253.254 10.6129 246.464C17.3979 239.674 26.5981 235.85 36.1974 235.831C56.0544 235.874 72.2087 252.271 72.1372 272.3C72.1184 281.896 68.2991 291.093 61.5153 297.879C54.7315 304.666 45.5356 308.489 35.94 308.511ZM364.202 308.511C354.604 308.53 345.39 304.746 338.576 297.986C331.762 291.225 327.905 282.041 327.848 272.443C327.748 252.4 343.831 235.945 363.659 235.845C373.252 235.83 382.461 239.615 389.272 246.371C396.082 253.128 399.939 262.307 399.999 271.9C400.114 291.928 384.017 308.397 364.202 308.511Z" fill="#444444"/>
<path d="M296.597 165.795C286.79 162.736 276.311 161.464 266.033 160.349C250.136 158.633 243.802 152.429 241.115 136.503C239.599 127.611 237.484 118.49 233.638 110.413C226.304 95.0449 209.121 88.1542 191.865 92.0856C177.284 95.4166 165.175 109.927 164.503 124.823C163.731 141.807 173.452 156.317 190.15 161.321C198.084 163.708 206.519 164.895 214.796 165.509C229.993 166.61 235.068 171.142 239.171 178.061C241.772 182.436 244.274 186.739 244.274 199.748C244.274 212.772 241.744 217.075 239.171 221.435C235.068 228.354 229.993 232.872 214.796 234.001C206.504 234.601 198.07 235.802 190.15 238.19C173.452 243.208 163.731 257.689 164.503 274.701C165.175 289.583 177.298 304.094 191.865 307.425C209.121 311.37 226.304 304.465 233.638 289.097C237.498 281.034 239.599 271.899 241.115 263.007C243.817 247.082 250.15 240.892 266.033 239.162C276.326 238.047 286.79 236.76 296.597 233.701C311.479 229.055 320.428 215.173 320.428 199.748C320.428 184.337 311.479 170.47 296.597 165.795Z" fill="#999999"/>
</g>
</svg>
