<svg width="400" height="400" viewBox="0 0 400 400" fill="none" xmlns="http://www.w3.org/2000/svg">
<mask id="mask0_109_331" style="mask-type:alpha" maskUnits="userSpaceOnUse" x="0" y="0" width="400" height="400">
<path d="M0 16C0 7.16345 7.16344 0 16 0H384C392.837 0 400 7.16344 400 16V384C400 392.837 392.837 400 384 400H16C7.16345 400 0 392.837 0 384V16Z" fill="white"/>
</mask>
<g mask="url(#mask0_109_331)">
<path d="M344.431 222.445C330.477 222.518 318.348 225.878 308.193 230.847C304.467 223.467 300.741 216.892 300.083 212.07C299.352 206.444 298.476 203.01 299.352 196.288C300.229 189.567 304.174 179.996 304.101 179.265C304.028 178.535 303.225 175.101 295.188 175.028C287.151 174.955 280.21 176.562 279.407 178.681C278.603 180.799 277.069 185.622 276.046 190.59C274.658 197.896 259.972 223.979 251.57 237.641C248.867 232.308 246.529 227.632 246.017 223.906C245.287 218.28 244.41 214.846 245.287 208.124C246.164 201.403 250.109 191.832 250.036 191.101C249.963 190.371 249.159 186.937 241.122 186.864C233.085 186.79 226.145 188.398 225.341 190.517C224.537 192.635 223.661 197.604 221.98 202.426C220.3 207.248 200.792 250.792 195.678 262.044C193.048 267.816 190.783 272.419 189.176 275.56C189.176 275.56 189.102 275.779 188.883 276.145C187.495 278.848 186.691 280.309 186.691 280.309C186.691 280.309 186.691 280.309 186.691 280.382C185.595 282.355 184.427 284.182 183.842 284.182C183.404 284.182 182.6 278.921 183.988 271.761C186.911 256.637 193.851 233.112 193.778 232.308C193.778 231.869 195.093 227.778 189.249 225.659C183.55 223.54 181.504 227.047 180.993 227.047C180.481 227.047 180.116 228.289 180.116 228.289C180.116 228.289 186.472 201.841 167.988 201.841C156.444 201.841 140.517 214.481 132.626 225.878C127.658 228.582 117.064 234.354 105.739 240.564C101.429 242.975 96.9718 245.386 92.8073 247.651C92.5151 247.359 92.2228 246.993 91.9306 246.701C69.5738 222.81 28.2209 205.933 29.9744 173.859C30.6319 162.169 34.6503 131.483 109.392 94.2215C170.91 63.901 219.861 72.303 228.337 90.9337C240.465 117.528 202.107 166.918 138.544 174.078C114.287 176.781 101.575 167.429 98.36 163.922C94.9992 160.269 94.4877 160.05 93.2457 160.781C91.2 161.877 92.5151 165.164 93.2457 167.064C95.1453 172.032 102.963 180.799 116.187 185.11C127.877 188.909 156.298 191.028 190.71 177.731C229.213 162.826 259.315 121.4 250.474 86.6962C241.634 51.4805 183.184 39.8637 127.877 59.5173C94.9992 71.2071 59.3451 89.6186 33.7005 113.583C3.23386 142.077 -1.5882 166.845 0.384464 177.219C7.47143 214.042 58.2492 238.007 78.5603 255.761C77.5375 256.345 76.5877 256.857 75.784 257.295C65.6284 262.336 26.9058 282.574 17.2617 303.981C6.30245 328.238 19.0152 345.626 27.4172 347.964C53.5002 355.197 80.3138 342.192 94.7069 320.712C109.1 299.232 107.347 271.323 100.698 258.537C100.625 258.391 100.552 258.245 100.406 258.099C103.036 256.564 105.739 254.957 108.369 253.423C113.557 250.354 118.671 247.505 123.055 245.167C120.571 251.961 118.744 260.071 117.867 271.761C116.772 285.497 122.397 303.324 129.776 310.338C133.064 313.406 136.937 313.479 139.421 313.479C148.042 313.479 151.914 306.319 156.225 297.844C161.485 287.469 166.234 275.414 166.234 275.414C166.234 275.414 160.316 308 176.39 308C182.235 308 188.153 300.401 190.783 296.529C190.783 296.602 190.783 296.602 190.783 296.602C190.783 296.602 190.929 296.383 191.221 295.871C191.806 294.922 192.171 294.337 192.171 294.337C192.171 294.337 192.171 294.264 192.171 294.191C194.509 290.1 199.769 280.821 207.587 265.405C217.67 245.532 227.387 220.691 227.387 220.691C227.387 220.691 228.263 226.755 231.259 236.838C233.012 242.756 236.666 249.258 239.588 255.541C237.25 258.829 235.789 260.656 235.789 260.656C235.789 260.656 235.789 260.656 235.862 260.729C233.962 263.213 231.917 265.916 229.652 268.546C221.688 278.044 212.19 288.931 210.875 292.072C209.34 295.798 209.706 298.502 212.628 300.693C214.747 302.301 218.546 302.52 222.419 302.301C229.579 301.789 234.62 300.036 237.104 298.94C240.976 297.552 245.506 295.433 249.744 292.291C257.561 286.52 262.31 278.264 261.872 267.377C261.653 261.386 259.68 255.395 257.269 249.77C257.999 248.747 258.657 247.724 259.388 246.701C271.735 228.655 281.306 208.855 281.306 208.855C281.306 208.855 282.183 214.919 285.178 225.002C286.64 230.116 289.635 235.669 292.265 241.075C280.649 250.5 273.489 261.459 270.931 268.619C266.328 281.917 269.909 287.908 276.703 289.296C279.772 289.953 284.156 288.492 287.37 287.104C291.462 285.789 296.284 283.524 300.887 280.163C308.704 274.391 316.23 266.355 315.791 255.468C315.572 250.5 314.257 245.605 312.43 240.856C322.294 236.765 335.006 234.5 351.226 236.399C386.003 240.491 392.871 262.19 391.556 271.323C390.241 280.455 382.935 285.424 380.524 286.958C378.113 288.492 377.309 289.004 377.528 290.1C377.82 291.707 378.989 291.634 381.035 291.342C383.885 290.83 399.301 283.962 399.958 267.158C401.054 245.678 380.597 222.225 344.431 222.445ZM76.1493 312.895C64.6056 325.461 48.532 330.21 41.5912 326.192C34.1389 321.881 37.0614 303.324 51.2353 290.026C59.8566 281.917 70.9619 274.391 78.3411 269.788C80.0216 268.766 82.5057 267.304 85.5012 265.478C86.0126 265.186 86.3048 265.039 86.3048 265.039C86.8893 264.674 87.4738 264.309 88.0583 263.943C93.2457 282.939 88.2775 299.671 76.1493 312.895ZM160.17 255.761C156.152 265.551 147.75 290.611 142.635 289.223C138.252 288.054 135.548 269.058 141.759 250.281C144.9 240.856 151.549 229.605 155.421 225.221C161.704 218.207 168.645 215.869 170.326 218.718C172.444 222.445 162.654 249.623 160.17 255.761ZM229.505 288.931C227.825 289.807 226.218 290.392 225.487 289.953C224.976 289.661 226.218 288.492 226.218 288.492C226.218 288.492 234.912 279.14 238.346 274.903C240.319 272.419 242.657 269.496 245.141 266.208C245.141 266.501 245.141 266.866 245.141 267.158C245.141 278.337 234.328 285.862 229.505 288.931ZM282.987 276.729C281.744 275.853 281.964 272.93 286.128 263.797C287.736 260.217 291.535 254.226 298.037 248.454C298.768 250.792 299.279 253.057 299.206 255.176C299.133 269.277 289.051 274.537 282.987 276.729Z" fill="#999999"/>
</g>
</svg>
