<svg width="400" height="400" viewBox="0 0 400 400" fill="none" xmlns="http://www.w3.org/2000/svg">
<mask id="mask0_109_286" style="mask-type:alpha" maskUnits="userSpaceOnUse" x="0" y="0" width="400" height="400">
<path d="M0 16C0 7.16345 7.16344 0 16 0H384C392.837 0 400 7.16344 400 16V384C400 392.837 392.837 400 384 400H16C7.16345 400 0 392.837 0 384V16Z" fill="white"/>
</mask>
<g mask="url(#mask0_109_286)">
<path d="M56.0856 360.136L24 0H376.747L344.661 359.942L200.082 400" fill="#888888"/>
<path d="M200.372 369.376V29.5605H344.563L317.047 336.804" fill="#999999"/>
<path d="M89.5321 73.6035H200.373V117.745H137.952L142.036 162.957H200.373V207.002H101.588L89.5321 73.6035ZM103.533 229.17H147.869L150.981 264.464L200.373 277.687V323.774L109.756 298.494" fill="#EBEBEB"/>
<path d="M310.823 73.6035H200.177V117.745H306.74L310.823 73.6035ZM302.753 162.957H200.177V207.099H254.625L249.472 264.464L200.177 277.687V323.579L290.6 298.494" fill="white"/>
</g>
</svg>
