<svg width="400" height="390" viewBox="0 0 400 390" fill="none" xmlns="http://www.w3.org/2000/svg">
<path d="M70.8333 0H329.167C368.333 0 400 31.6667 400 70.8333V319.167C400 358.333 368.333 390 329.167 390H70.8333C31.6667 390 0 358.333 0 319.167V70.8333C0 31.6667 31.6667 0 70.8333 0Z" fill="#888888"/>
<path d="M90 273.5V102C90 100.833 90.5 100.167 91.6667 100.167C94.5 100.167 97.1667 100.167 101 100C105 99.8334 109.167 99.8334 113.667 99.6667C118.167 99.5 123 99.5 128.167 99.3334C133.333 99.1667 138.333 99.1667 143.333 99.1667C157 99.1667 168.333 100.833 177.667 104.333C186 107.167 193.667 111.833 200 118C205.333 123.333 209.5 129.833 212.167 137C214.667 144 216 151.167 216 158.667C216 173 212.667 184.833 206 194.167C199.333 203.5 190 210.5 179.167 214.5C167.833 218.667 155.333 220.167 141.667 220.167C137.667 220.167 135 220.167 133.333 220C131.667 219.833 129.333 219.833 126.167 219.833V273.333C126.333 274.5 125.5 275.5 124.333 275.667C124.167 275.667 124 275.667 123.667 275.667H92C90.6667 275.667 90 275 90 273.5ZM126.333 132.333V188.333C128.667 188.5 130.833 188.667 132.833 188.667H141.667C148.167 188.667 154.667 187.667 160.833 185.667C166.167 184.167 170.833 181 174.5 176.833C178 172.667 179.667 167 179.667 159.667C179.833 154.5 178.5 149.333 175.833 144.833C173 140.5 169 137.167 164.167 135.333C158 132.833 151.333 131.833 144.5 132C140.167 132 136.333 132 133.167 132.167C129.833 132 127.5 132.167 126.333 132.333Z" fill="#444444"/>
<path d="M320 178.167C315 175.5 309.667 173.667 304 172.5C297.833 171.167 291.667 170.333 285.333 170.333C282 170.167 278.5 170.667 275.333 171.5C273.167 172 271.333 173.167 270.167 174.833C269.333 176.167 268.833 177.833 268.833 179.333C268.833 180.833 269.5 182.333 270.5 183.667C272 185.5 274 187 276.167 188.167C280 190.167 284 192 288 193.667C297 196.667 305.667 200.833 313.667 205.833C319.167 209.333 323.667 214 326.833 219.667C329.5 225 330.833 230.833 330.667 236.833C330.833 244.667 328.5 252.5 324.167 259C319.5 265.667 313 270.833 305.5 273.833C297.333 277.333 287.333 279.167 275.333 279.167C267.667 279.167 260.167 278.5 252.667 277C246.833 276 241 274.167 235.667 271.667C234.5 271 233.667 269.833 233.833 268.5V239.5C233.833 239 234 238.333 234.5 238C235 237.667 235.5 237.833 236 238.167C242.5 242 249.333 244.667 256.667 246.333C263 248 269.667 248.833 276.333 248.833C282.667 248.833 287.167 248 290.167 246.5C292.833 245.333 294.667 242.5 294.667 239.5C294.667 237.167 293.333 235 290.667 232.833C288 230.667 282.5 228.167 274.333 225C265.833 222 258 218 250.667 213C245.5 209.333 241.167 204.5 238 198.833C235.333 193.5 234 187.667 234.167 181.833C234.167 174.667 236.167 167.833 239.833 161.667C244 155 250.167 149.667 257.333 146.333C265.167 142.333 275 140.5 286.833 140.5C293.667 140.5 300.667 141 307.5 142C312.5 142.667 317.333 144 321.833 145.833C322.5 146 323.167 146.667 323.5 147.333C323.667 148 323.833 148.667 323.833 149.333V176.5C323.833 177.167 323.5 177.833 323 178.167C321.5 178.5 320.667 178.5 320 178.167Z" fill="#444444"/>
</svg>
