<svg width="400" height="400" viewBox="0 0 400 400" fill="none" xmlns="http://www.w3.org/2000/svg">
<mask id="mask0_109_342" style="mask-type:alpha" maskUnits="userSpaceOnUse" x="0" y="0" width="400" height="400">
<path d="M0 16C0 7.16345 7.16344 0 16 0H384C392.837 0 400 7.16344 400 16V384C400 392.837 392.837 400 384 400H16C7.16345 400 0 392.837 0 384V16Z" fill="white"/>
</mask>
<g mask="url(#mask0_109_342)">
<path d="M277.158 275.207C291.919 273.679 303.117 260.954 302.608 245.682C302.1 230.412 289.373 218.195 274.103 218.195H273.086C257.305 218.704 245.089 231.939 245.598 247.718C246.108 255.354 249.161 261.972 253.742 266.553C236.436 300.659 209.967 325.601 170.264 346.471C143.286 360.725 115.291 365.815 87.2953 362.253C64.389 359.198 46.5734 349.018 35.3734 332.218C19.0859 307.276 17.5594 280.297 31.3031 253.318C40.975 233.975 56.2437 219.722 65.9156 212.595C63.8797 205.978 60.825 194.779 59.2984 186.636C-14.5094 240.084 -6.87345 312.367 15.5234 346.471C32.3203 371.924 66.425 387.704 104.092 387.704C114.272 387.704 124.452 386.685 134.633 384.142C199.787 371.415 249.162 332.728 277.158 275.207V275.207ZM366.745 212.087C328.059 166.783 271.05 141.84 205.895 141.84H197.752C193.17 132.678 183.498 126.569 172.809 126.569H171.791C156.012 127.078 143.797 140.312 144.305 156.094C144.814 171.364 157.539 183.581 172.809 183.581H173.827C185.025 183.072 194.697 175.945 198.769 166.273H207.931C246.617 166.273 283.266 177.472 316.353 199.361C341.803 216.159 360.128 238.048 370.308 264.517C378.961 285.897 378.451 306.767 369.289 324.584C355.037 351.562 331.114 366.325 299.555 366.325C279.194 366.325 259.852 360.215 249.67 355.634C244.072 360.725 233.891 368.868 226.764 373.96C248.653 384.14 271.05 389.74 292.428 389.74C341.294 389.74 377.434 362.76 391.178 335.782C405.939 306.257 404.92 255.354 366.745 212.087V212.087ZM108.164 283.859C108.673 299.131 121.398 311.346 136.669 311.346H137.687C153.467 310.839 165.683 297.603 165.173 281.823C164.666 266.551 151.939 254.336 136.669 254.336H135.652C134.633 254.336 133.105 254.336 132.089 254.843C111.219 220.229 102.566 182.562 105.62 141.839C107.655 111.297 117.836 84.8265 135.652 62.9374C150.412 44.1031 178.917 34.9406 198.261 34.4328C252.216 33.414 275.12 100.606 276.648 127.586C283.266 129.112 294.464 132.676 302.1 135.222C295.991 52.7593 245.089 10 196.225 10C150.412 10 108.164 43.0875 91.3656 91.9546C67.9515 157.111 83.2218 219.722 111.727 269.098C109.183 272.661 107.655 278.261 108.164 283.861V283.859Z" fill="#999999"/>
</g>
</svg>
