<svg width="132" height="132" viewBox="0 0 132 132" fill="none" xmlns="http://www.w3.org/2000/svg">
<g clip-path="url(#clip0_579_2)">
<path d="M122.619 131.56C120.247 131.56 117.973 130.618 116.297 128.941C114.62 127.265 113.678 124.99 113.678 122.619V30.9627L15.6987 128.938C14.8687 129.768 13.8833 130.426 12.7988 130.875C11.7143 131.324 10.552 131.556 9.37813 131.556C8.20429 131.556 7.04194 131.324 5.95745 130.875C4.87296 130.426 3.88756 129.768 3.05753 128.938C2.2275 128.108 1.56908 127.122 1.11987 126.038C0.670659 124.953 0.439453 123.791 0.439453 122.617C0.439453 121.443 0.670659 120.281 1.11987 119.196C1.56908 118.112 2.2275 117.126 3.05753 116.296L101.037 18.3215H9.38033C7.00908 18.3215 4.73496 17.3796 3.05823 15.7028C1.38151 14.0261 0.439532 11.752 0.439532 9.38074C0.439532 7.00949 1.38151 4.73537 3.05823 3.05864C4.73496 1.38192 7.00908 0.439941 9.38033 0.439941H122.619C124.947 0.442285 127.184 1.3513 128.854 2.97434C128.854 2.97434 128.871 2.95674 128.858 2.98314C128.914 3.03305 128.968 3.0844 129.021 3.13714C129.81 3.9432 130.437 4.89316 130.869 5.93554C131.313 6.99594 131.56 8.16194 131.56 9.38074V122.619C131.56 127.556 127.556 131.56 122.619 131.56Z" fill="white"/>
</g>
<defs>
<clipPath id="clip0_579_2">
<rect width="132" height="132" fill="white"/>
</clipPath>
</defs>
</svg>
