<svg width="31" height="31" viewBox="0 0 31 31" fill="none" xmlns="http://www.w3.org/2000/svg">
<path d="M28.3938 30.4399C27.8513 30.4399 27.331 30.2244 26.9474 29.8408C26.5637 29.4572 26.3482 28.9368 26.3482 28.3943V7.4235L3.93075 29.8399C3.74084 30.0299 3.51538 30.1805 3.26725 30.2833C3.01912 30.3861 2.75318 30.439 2.48461 30.439C2.21603 30.439 1.95009 30.3861 1.70196 30.2833C1.45383 30.1805 1.22837 30.0299 1.03846 29.8399C0.848554 29.65 0.69791 29.4246 0.595131 29.1764C0.492353 28.9283 0.439453 28.6624 0.439453 28.3938C0.439453 28.1252 0.492353 27.8593 0.595131 27.6112C0.69791 27.363 0.848554 27.1376 1.03846 26.9477L23.4559 4.53122H2.48511C1.94257 4.53122 1.42226 4.3157 1.03862 3.93206C0.654993 3.54843 0.439471 3.02812 0.439471 2.48558C0.439471 1.94304 0.654993 1.42273 1.03862 1.03909C1.42226 0.655463 1.94257 0.439941 2.48511 0.439941H28.3938C28.9266 0.440478 29.4383 0.648459 29.8203 1.01981C29.8203 1.01981 29.8244 1.01578 29.8214 1.02182C29.8341 1.03324 29.8465 1.04499 29.8586 1.05706C30.0392 1.24148 30.1827 1.45883 30.2814 1.69732C30.3831 1.93994 30.4395 2.20672 30.4395 2.48558V28.3943C30.4395 29.5238 29.5234 30.4399 28.3938 30.4399Z" fill="black"/>
</svg>
